{"glyphs":{":":{"x_min":0,"x_max":306,"ha":306,"o":"m 272 391 q 272 349 240 323 q 208 297 158 297 q 108 297 76 323 q 44 349 44 391 q 44 432 76 458 q 108 484 158 484 q 208 484 240 458 q 272 432 272 391 z m 272 95 q 272 54 240 28 q 208 2 158 2 q 108 2 76 28 q 44 54 44 95 q 44 137 76 163 q 108 189 158 189 q 208 189 240 163 q 272 137 272 95 z"},"$":{"x_min":0,"x_max":568,"ha":568,"o":"m 521 769 l 422 641 l 315 641 l 315 610 l 326 610 q 414 610 473 566 q 532 522 532 450 q 532 378 473 336 q 414 293 326 293 l 315 293 l 315 253 l 251 253 l 251 293 l 37 293 l 136 421 l 251 421 l 251 482 l 236 482 q 155 482 100 519 q 42 560 42 626 q 42 691 100 732 q 155 769 236 769 l 251 769 l 251 802 l 315 802 l 315 769 z m 251 610 l 251 641 l 236 641 q 212 641 212 625 q 212 610 236 610 z m 386 452 q 386 482 326 482 l 315 482 l 315 421 l 326 421 q 386 421 386 452 z"},"?":{"x_min":0,"x_max":847,"ha":847,"o":"m 847 505 q 847 401 745 340 q 654 285 525 285 l 245 285 l 245 221 l 21 221 l 21 378 q 21 416 54 444 q 88 471 133 471 l 546 471 q 571 471 595 478 q 629 487 629 505 q 629 523 595 532 q 571 538 546 538 l 142 538 l -3 725 l 525 725 q 653 725 745 670 q 847 608 847 505 z m 246 95 q 246 54 214 28 q 181 2 132 2 q 82 2 50 28 q 18 54 18 95 q 18 137 50 163 q 82 189 132 189 q 181 189 214 163 q 246 137 246 95 z"},"<":{"x_min":0,"x_max":951,"ha":951,"o":"m 915 96 l 118 321 q 33 345 33 409 q 33 474 118 498 l 915 723 l 915 526 l 502 409 l 915 292 z"},"'":{"x_min":0,"x_max":252,"ha":252,"o":"m 252 759 l 192 487 l 19 487 l 19 759 z"},"=":{"x_min":0,"x_max":629,"ha":629,"o":"m 591 393 l 48 393 l 48 540 l 591 540 z m 591 183 l 48 183 l 48 330 l 591 330 z"},"a":{"x_min":0,"x_max":1196,"ha":1196,"o":""},"L":{"x_min":0,"x_max":781,"ha":781,"o":"m 781 190 l 636 4 l -1 4 l -1 725 l 222 725 l 222 190 z"},"3":{"x_min":0,"x_max":1061,"ha":1061,"o":"m 957 361 q 1021 303 1021 231 q 1021 180 988 134 q 942 69 848 35 q 765 5 664 5 l 184 5 l 40 191 l 686 191 q 721 191 752 198 q 798 208 798 229 q 798 250 752 260 q 721 267 686 267 l 399 267 l 254 454 l 686 454 q 714 454 737 462 q 770 474 770 497 q 770 520 737 531 q 714 539 686 539 l 184 539 l 40 726 l 664 726 q 766 726 848 695 q 942 660 988 594 q 1021 547 1021 495 q 1021 421 957 361 z"},";":{"x_min":0,"x_max":324,"ha":324,"o":"m 279 391 q 279 349 247 323 q 215 297 165 297 q 115 297 83 323 q 51 349 51 391 q 51 432 83 458 q 115 484 165 484 q 215 484 247 458 q 279 432 279 391 z m 281 268 l 205 -20 l 47 -20 l 47 268 z"},"J":{"x_min":0,"x_max":872,"ha":872,"o":"m 825 332 q 825 4 375 4 l 47 4 l 47 190 l 375 190 q 488 190 537 214 q 601 245 601 332 l 601 725 l 825 725 z"},"V":{"x_min":0,"x_max":1187,"ha":1187,"o":"m 1187 725 l 701 74 q 641 -7 579 -7 q 517 -7 457 75 l -17 725 l 261 725 l 583 279 l 907 725 z"},"\"":{"x_min":0,"x_max":502,"ha":502,"o":"m 502 759 l 442 487 l 269 487 l 269 759 z m 265 759 l 206 487 l 33 487 l 33 759 z"},"7":{"x_min":0,"x_max":801,"ha":801,"o":"m 297 5 l 0 5 l 478 538 l 135 538 l -9 725 l 645 725 q 709 725 752 700 q 801 672 801 621 q 801 578 762 533 z"},"S":{"x_min":0,"x_max":1008,"ha":1008,"o":"m 962 725 l 818 538 l 308 538 q 267 538 267 509 q 267 480 308 480 l 675 480 q 806 480 894 416 q 985 348 985 240 q 985 133 893 67 q 807 4 675 4 l 15 4 l 159 190 l 675 190 q 710 190 738 202 q 774 217 774 243 q 774 270 738 284 q 711 294 675 294 l 308 294 q 186 294 104 350 q 16 410 16 509 q 16 609 104 669 q 186 725 308 725 z"},"}":{"x_min":0,"x_max":557,"ha":557,"o":"m 507 12 q 507 -106 402 -166 q 312 -216 162 -216 l 85 -110 q 226 -110 274 -98 q 379 -74 379 12 l 379 592 q 379 668 305 693 q 259 708 150 708 l 73 815 l 170 815 q 332 815 411 772 q 507 719 507 592 z"},"Z":{"x_min":0,"x_max":974,"ha":974,"o":"m 957 4 l 165 4 q 111 4 76 22 q 33 44 33 86 q 33 132 87 177 l 520 538 l 17 538 l 158 725 l 772 725 q 825 725 863 702 q 906 677 906 634 q 906 591 859 551 l 426 190 l 823 190 z"},"x":{"x_min":0,"x_max":1118,"ha":1118,"o":""},")":{"x_min":0,"x_max":531,"ha":531,"o":"m 480 12 q 480 -106 376 -166 q 286 -216 136 -216 l 59 -110 q 200 -110 248 -98 q 353 -74 353 12 l 353 592 q 353 668 278 693 q 233 708 124 708 l 47 815 l 143 815 q 306 815 385 772 q 480 719 480 592 z"},"&":{"x_min":0,"x_max":867,"ha":867,"o":"m 867 454 l 733 267 l 681 267 l 681 191 l 867 191 l 733 5 l 365 5 q 263 5 179 36 q 83 71 38 139 q 8 183 8 231 q 8 303 72 361 q 8 421 8 495 q 8 544 38 589 q 83 658 178 694 q 262 726 365 726 l 560 726 l 426 539 q 336 539 320 538 q 242 530 242 497 q 242 473 283 462 q 311 454 344 454 z m 465 191 l 465 267 l 344 267 q 317 267 295 260 q 264 250 264 229 q 264 191 344 191 z"},"_":{"x_min":0,"x_max":948,"ha":948,"o":"m 948 -198 l 12 -198 l 12 -11 l 948 -11 z"},"v":{"x_min":0,"x_max":1187,"ha":1187,"o":""},"O":{"x_min":0,"x_max":1150,"ha":1150,"o":"m 1119 371 q 1119 213 996 108 q 872 4 684 4 l 467 4 q 278 4 154 108 q 31 213 31 371 q 31 529 154 627 q 276 725 467 725 l 684 725 q 875 725 997 627 q 1119 529 1119 371 z m 684 538 l 467 538 q 374 538 314 488 q 254 439 254 362 q 254 285 314 238 q 374 190 467 190 l 684 190 q 777 190 837 238 q 897 285 897 362 q 897 439 836 488 q 776 538 684 538 z"},"(":{"x_min":0,"x_max":446,"ha":446,"o":"m 446 815 l 369 708 q 260 708 214 693 q 140 668 140 592 l 140 12 q 140 -74 245 -98 q 293 -110 434 -110 l 357 -216 q 207 -216 117 -166 q 12 -106 12 12 l 12 592 q 12 719 108 772 q 187 815 349 815 z"},"C":{"x_min":0,"x_max":969,"ha":969,"o":"m 944 190 l 800 4 l 438 4 q 250 4 126 108 q 3 213 3 371 q 3 529 125 627 q 247 725 438 725 l 944 725 l 800 538 l 438 538 q 346 538 286 488 q 226 439 226 362 q 226 286 286 238 q 346 190 438 190 z"},"W":{"x_min":0,"x_max":1317,"ha":1317,"o":"m 1317 725 l 1130 85 q 1119 47 1085 21 q 1048 -7 1002 -7 q 931 -7 879 77 l 659 436 l 438 77 q 387 -7 316 -7 q 270 -7 234 20 q 199 47 188 85 l 1 725 l 246 725 l 341 344 l 543 669 q 583 733 653 733 q 690 733 724 715 q 757 697 775 669 l 977 344 l 1071 725 z"},"A":{"x_min":0,"x_max":1196,"ha":1196,"o":"m 347 4 l 482 191 l 783 191 l 596 450 l 271 4 l -6 4 l 456 645 q 478 677 517 701 q 560 727 600 727 q 641 727 683 701 q 720 678 743 645 l 1194 4 z"},"f":{"x_min":0,"x_max":790,"ha":790,"o":""},"Q":{"x_min":0,"x_max":1203,"ha":1203,"o":"m 1174 4 l 848 4 l 824 23 q 755 4 675 4 l 458 4 q 269 4 146 108 q 22 213 22 371 q 22 529 144 627 q 267 725 458 725 l 675 725 q 866 725 988 627 q 1110 529 1110 371 q 1110 237 1015 135 z m 675 538 l 458 538 q 365 538 305 488 q 245 439 245 362 q 245 285 305 238 q 365 190 458 190 l 624 190 l 525 273 l 849 273 l 856 267 q 887 309 887 362 q 887 440 828 489 q 768 538 675 538 z"},"w":{"x_min":0,"x_max":1317,"ha":1317,"o":""},"-":{"x_min":0,"x_max":623,"ha":623,"o":"m 568 274 l 173 274 l 38 461 l 433 461 z"},"E":{"x_min":0,"x_max":800,"ha":800,"o":"m 799 190 l 655 4 l 16 4 l 16 725 l 799 725 l 655 538 l 240 538 l 240 462 l 764 462 l 620 276 l 240 276 l 240 190 z"},"s":{"x_min":0,"x_max":1008,"ha":1008,"o":""},">":{"x_min":0,"x_max":875,"ha":875,"o":"m -7 94 l -7 292 l 406 409 l -7 526 l -7 723 l 790 498 q 875 474 875 410 q 875 345 790 321 z"},"l":{"x_min":0,"x_max":781,"ha":781,"o":""},"8":{"x_min":0,"x_max":1070,"ha":1070,"o":"m 954 361 q 1026 304 1026 230 q 1026 159 963 102 q 907 51 821 26 q 749 5 664 5 l 397 5 q 312 5 240 26 q 154 50 98 102 q 36 159 36 230 q 36 304 108 362 q 36 421 36 498 q 36 551 72 599 q 119 664 213 697 q 296 726 397 726 l 664 726 q 749 726 822 705 q 909 679 966 627 q 1030 569 1030 497 q 1030 420 954 361 z m 686 454 q 714 454 738 462 q 770 474 770 497 q 770 520 737 531 q 714 539 686 539 l 375 539 q 347 539 324 531 q 291 520 291 497 q 291 474 323 462 q 347 454 375 454 z m 686 191 q 766 191 766 229 q 766 250 734 260 q 712 267 686 267 l 375 267 q 349 267 327 260 q 295 250 295 229 q 295 191 375 191 z"},"\\":{"x_min":0,"x_max":1024,"ha":1024,"o":"m 1024 3 l 756 3 l -16 725 l 246 725 z"},"e":{"x_min":0,"x_max":800,"ha":800,"o":""},"b":{"x_min":0,"x_max":1044,"ha":1044,"o":""},"%":{"x_min":0,"x_max":595,"ha":595,"o":"m 278 669 q 278 584 202 554 q 178 545 156 545 q 133 545 108 555 q 34 586 34 669 q 34 752 108 782 q 133 793 156 793 q 178 793 202 784 q 278 754 278 669 z m 189 666 q 189 674 158 674 q 128 674 128 666 q 128 658 158 658 q 189 658 189 666 z m 555 694 l 237 328 l 55 328 l 375 694 z m 568 356 q 568 271 491 241 q 468 232 446 232 q 422 232 397 243 q 324 273 324 356 q 324 439 397 469 q 422 480 446 480 q 468 480 491 471 q 568 441 568 356 z m 478 353 q 478 361 448 361 q 418 361 418 353 q 418 345 448 345 q 478 345 478 353 z"},"m":{"x_min":0,"x_max":1368,"ha":1368,"o":""},"#":{"x_min":0,"x_max":574,"ha":574,"o":"m 574 667 l 533 566 l 436 566 l 412 507 l 509 507 l 468 406 l 371 406 l 327 296 l 222 296 l 267 406 l 195 406 l 151 296 l 46 296 l 91 406 l 1 406 l 42 507 l 132 507 l 155 566 l 66 566 l 107 667 l 196 667 l 235 763 l 340 763 l 301 667 l 372 667 l 411 763 l 516 763 l 477 667 z m 331 566 l 260 566 l 236 507 l 308 507 z"},",":{"x_min":0,"x_max":300,"ha":300,"o":"m 268 219 l 208 -53 l 35 -53 l 35 219 z"},"n":{"x_min":0,"x_max":966,"ha":966,"o":""},"h":{"x_min":0,"x_max":988,"ha":988,"o":""},"z":{"x_min":0,"x_max":974,"ha":974,"o":""},"B":{"x_min":0,"x_max":1044,"ha":1044,"o":"m 939 361 q 1003 303 1003 231 q 1003 178 968 131 q 921 67 828 34 q 746 5 646 5 l 45 5 l 45 454 l 668 454 q 696 454 720 462 q 753 474 753 497 q 753 520 720 531 q 696 539 668 539 l 45 539 l 196 726 l 646 726 q 747 726 829 696 q 921 662 968 597 q 1003 549 1003 495 q 1003 421 939 361 z m 668 267 l 269 267 l 269 191 l 668 191 q 703 191 734 198 q 780 208 780 229 q 780 250 734 260 q 703 267 668 267 z"},"K":{"x_min":0,"x_max":930,"ha":930,"o":"m 923 4 l 583 4 l 237 245 l 237 4 l 13 4 l 13 725 l 237 725 l 237 478 l 583 725 l 919 725 l 405 359 z"},"R":{"x_min":0,"x_max":1129,"ha":1129,"o":"m 1103 4 l 778 4 l 560 185 l 252 185 l 252 4 l 28 4 l 28 372 l 650 372 q 707 372 744 389 q 791 411 791 454 q 791 538 650 538 l 28 538 l 174 725 l 629 725 q 798 725 903 661 q 1021 588 1021 453 q 1021 377 974 316 q 926 254 842 221 z"},"T":{"x_min":0,"x_max":872,"ha":872,"o":"m 872 725 l 727 538 l 511 538 l 511 4 l 287 4 l 287 538 l -10 538 l 134 725 z"},"P":{"x_min":0,"x_max":969,"ha":969,"o":"m 968 455 q 968 333 863 257 q 762 185 613 185 l 236 185 l 236 4 l 13 4 l 13 372 l 635 372 q 681 372 712 395 q 744 418 744 456 q 744 494 712 516 q 681 538 635 538 l 13 538 l 161 725 l 614 725 q 762 725 863 653 q 968 577 968 455 z"},"|":{"x_min":0,"x_max":174,"ha":174,"o":"m 110 -212 l 69 -212 l 69 778 l 110 778 z"},"t":{"x_min":0,"x_max":872,"ha":872,"o":""},"M":{"x_min":0,"x_max":1368,"ha":1368,"o":"m 1337 2 l 1092 2 l 997 383 l 795 58 q 755 -5 685 -5 q 649 -5 615 13 q 581 31 564 58 l 361 383 l 267 2 l 21 2 l 208 642 q 219 681 254 708 q 290 734 336 734 q 407 734 459 650 l 679 291 l 900 650 q 951 734 1022 734 q 1069 734 1104 708 q 1139 681 1151 642 z"},"g":{"x_min":0,"x_max":968,"ha":968,"o":""},"j":{"x_min":0,"x_max":872,"ha":872,"o":""},"i":{"x_min":0,"x_max":340,"ha":340,"o":""},"y":{"x_min":0,"x_max":1098,"ha":1098,"o":""},"@":{"x_min":0,"x_max":866,"ha":866,"o":"m 823 263 l 414 263 q 343 263 301 308 q 261 350 261 410 q 261 471 302 514 q 343 556 414 556 l 624 556 l 624 354 l 695 354 l 695 625 l 437 625 q 323 625 250 566 q 177 508 177 413 q 177 319 250 258 q 323 197 437 197 l 724 197 l 807 91 l 437 91 q 266 91 158 177 q 49 263 49 404 q 49 545 158 638 q 268 732 437 732 l 823 732 z m 514 354 l 514 473 l 450 473 q 419 473 400 456 q 380 439 380 413 q 380 387 400 370 q 419 354 450 354 z"},".":{"x_min":0,"x_max":335,"ha":335,"o":"m 285 95 q 285 54 253 28 q 221 2 171 2 q 121 2 89 28 q 57 54 57 95 q 57 137 89 163 q 121 189 171 189 q 221 189 253 163 q 285 137 285 95 z"},"p":{"x_min":0,"x_max":969,"ha":969,"o":""},"X":{"x_min":0,"x_max":1118,"ha":1118,"o":"m 1111 725 l 754 358 l 1095 4 l 810 4 l 565 262 l 319 4 l 35 4 l 375 358 l 19 725 l 308 725 l 565 457 l 821 725 z"},"*":{"x_min":0,"x_max":693,"ha":693,"o":"m 677 477 l 605 353 l 472 353 l 569 188 l 403 188 l 334 305 l 172 170 l 118 300 l 181 353 l 30 353 l 102 477 l 234 477 l 151 618 l 317 618 l 377 516 l 524 639 l 578 509 l 541 477 z"},"Y":{"x_min":0,"x_max":1098,"ha":1098,"o":"m 1098 725 l 670 243 l 670 4 l 446 4 l 446 244 l 5 725 l 291 725 l 561 432 l 813 725 z"},"c":{"x_min":0,"x_max":944,"ha":944,"o":""},"!":{"x_min":0,"x_max":321,"ha":321,"o":"m 277 725 l 277 531 q 277 434 277 434 l 252 221 l 78 221 l 53 434 q 53 434 53 531 l 53 725 z m 280 95 q 280 54 248 28 q 216 2 167 2 q 117 2 85 28 q 53 54 53 95 q 53 137 85 163 q 117 189 167 189 q 216 189 248 163 q 280 137 280 95 z"},"/":{"x_min":0,"x_max":1028,"ha":1028,"o":"m 1028 725 l 257 3 l -12 3 l 767 725 z"},"[":{"x_min":0,"x_max":416,"ha":416,"o":"m 337 -70 l 83 -70 q 15 -70 15 -16 l 15 609 q 15 664 83 664 l 337 664 q 365 664 386 650 q 406 636 406 609 q 406 583 386 569 q 365 555 337 555 l 151 555 l 151 39 l 337 39 q 365 39 386 25 q 406 11 406 -16 q 406 -42 386 -56 q 365 -70 337 -70 z"},"6":{"x_min":0,"x_max":998,"ha":998,"o":"m 925 725 l 781 538 l 463 538 q 358 538 299 480 l 734 480 q 848 480 915 407 q 977 340 977 243 q 977 145 915 78 q 848 4 734 4 l 463 4 q 274 4 150 108 q 27 213 27 371 q 27 529 150 627 q 272 725 463 725 z m 734 190 q 781 190 781 243 q 781 264 771 281 q 757 302 734 302 l 262 302 q 306 190 463 190 z"},"r":{"x_min":0,"x_max":1129,"ha":1129,"o":""},"2":{"x_min":0,"x_max":944,"ha":944,"o":"m 919 190 l 775 4 l 35 4 l 35 246 q 35 351 129 418 q 217 480 345 480 l 626 480 q 667 480 667 509 q 667 538 626 538 l 169 538 l 25 725 l 626 725 q 747 725 830 669 q 918 609 918 509 q 918 410 830 350 q 747 294 626 294 l 345 294 q 313 294 285 285 q 246 272 246 246 l 246 190 z"},"{":{"x_min":0,"x_max":435,"ha":435,"o":"m 435 815 l 358 708 q 249 708 204 693 q 129 668 129 592 l 129 12 q 129 -74 234 -98 q 282 -110 423 -110 l 346 -216 q 196 -216 106 -166 q 1 -106 1 12 l 1 592 q 1 719 97 772 q 176 815 339 815 z"},"9":{"x_min":0,"x_max":1022,"ha":1022,"o":"m 996 359 q 996 200 874 102 q 751 4 560 4 l 97 4 l 242 191 l 560 191 q 665 191 723 250 l 288 250 q 175 250 107 323 q 46 389 46 487 q 46 584 107 651 q 175 726 288 726 l 560 726 q 749 726 872 621 q 996 516 996 359 z m 761 427 q 716 539 560 539 l 288 539 q 241 539 241 487 q 241 466 252 448 q 265 427 288 427 z"}," ":{"x_min":0,"x_max":413,"ha":413,"o":""},"I":{"x_min":0,"x_max":340,"ha":340,"o":"m 286 4 l 63 4 l 63 725 l 286 725 z"},"H":{"x_min":0,"x_max":988,"ha":988,"o":"m 934 4 l 711 4 l 711 273 l 282 273 l 282 4 l 58 4 l 58 725 l 282 725 l 282 460 l 711 460 l 711 725 l 934 725 z"},"4":{"x_min":0,"x_max":1058,"ha":1058,"o":"m 1048 399 l 904 212 l 856 212 l 856 4 l 632 4 l 632 212 l 9 212 l 9 394 l 581 725 l 856 725 l 856 399 z m 632 399 l 632 558 l 358 399 z"},"~":{"x_min":0,"x_max":132,"ha":132,"o":"m 122 671 l 98 647 l 65 647 l 53 661 l 43 647 l 16 647 l 39 671 l 68 671 l 82 657 l 95 671 z"},"D":{"x_min":0,"x_max":985,"ha":985,"o":"m 954 371 q 954 213 830 108 q 707 4 519 4 l 36 4 l 36 454 l 260 454 l 260 190 l 519 190 q 612 190 672 238 q 732 285 732 362 q 732 439 672 488 q 611 538 519 538 l 36 538 l 178 725 l 519 725 q 710 725 832 627 q 954 529 954 371 z"},"^":{"x_min":0,"x_max":566,"ha":566,"o":"m 536 522 q 536 498 514 482 q 493 465 468 465 q 451 465 433 473 l 276 542 l 118 472 q 100 464 83 464 q 58 464 37 480 q 16 497 16 521 q 16 552 52 568 l 244 653 q 257 659 275 659 q 295 659 310 652 l 501 567 q 536 551 536 522 z"},"0":{"x_min":0,"x_max":988,"ha":988,"o":"m 957 371 q 957 213 834 108 q 710 4 522 4 l 467 4 q 278 4 154 108 q 31 213 31 371 q 31 529 154 627 q 276 725 467 725 l 522 725 q 713 725 835 627 q 957 529 957 371 z m 467 538 q 374 538 314 488 q 254 439 254 362 q 254 285 314 238 q 374 190 467 190 l 522 190 q 615 190 675 238 q 735 285 735 362 q 735 439 674 488 q 614 538 522 538 z"},"F":{"x_min":0,"x_max":790,"ha":790,"o":"m 790 725 l 646 538 l 231 538 l 231 462 l 755 462 l 611 276 l 231 276 l 231 4 l 7 4 l 7 725 z"},"`":{"x_min":0,"x_max":708,"ha":708,"o":"m 414 849 l 523 849 l 604 579 l 522 579 z"},"k":{"x_min":0,"x_max":930,"ha":930,"o":""},"u":{"x_min":0,"x_max":1044,"ha":1044,"o":""},"]":{"x_min":0,"x_max":466,"ha":466,"o":"m 424 -16 q 424 -70 355 -70 l 101 -70 q 73 -70 54 -57 q 32 -42 32 -16 q 32 11 54 26 q 73 39 101 39 l 287 39 l 287 555 l 101 555 q 73 555 54 568 q 32 583 32 609 q 32 636 54 651 q 73 664 101 664 l 355 664 q 424 664 424 609 z"},"U":{"x_min":0,"x_max":1044,"ha":1044,"o":"m 997 332 q 997 4 547 4 l 500 4 q 50 4 50 332 l 50 725 l 273 725 l 273 332 q 273 234 359 206 q 405 190 547 190 q 660 190 708 214 q 773 245 773 332 l 773 725 l 997 725 z"},"o":{"x_min":0,"x_max":1150,"ha":1150,"o":""},"N":{"x_min":0,"x_max":966,"ha":966,"o":"m 914 97 q 914 -1 825 -1 q 761 -1 703 47 l 281 400 l 281 4 l 57 4 l 57 632 q 57 672 82 698 q 108 724 155 724 q 216 724 268 681 l 690 328 l 690 725 l 914 725 z"},"+":{"x_min":0,"x_max":672,"ha":672,"o":"m 647 274 l 448 274 l 448 157 l 224 157 l 224 274 l 165 274 l 31 461 l 224 461 l 224 572 l 448 572 l 448 461 l 512 461 z"},"G":{"x_min":0,"x_max":968,"ha":968,"o":"m 958 725 l 814 538 l 452 538 q 360 538 300 488 q 239 439 239 362 q 239 285 299 238 q 359 190 452 190 l 712 190 l 712 257 l 432 257 l 285 435 l 936 435 l 936 4 l 452 4 q 264 4 140 108 q 17 213 17 371 q 17 529 139 627 q 261 725 452 725 z"},"q":{"x_min":0,"x_max":1203,"ha":1203,"o":""},"d":{"x_min":0,"x_max":985,"ha":985,"o":""},"1":{"x_min":0,"x_max":499,"ha":499,"o":"m 446 4 l 223 4 l 223 538 l 182 538 l 47 725 l 446 725 z"},"5":{"x_min":0,"x_max":896,"ha":896,"o":"m 849 725 l 704 538 l 254 538 l 254 480 l 561 480 q 693 480 780 416 q 871 348 871 240 q 871 132 780 67 q 693 4 561 4 l 9 4 l 154 190 l 561 190 q 597 190 625 202 q 660 216 660 243 q 660 270 624 284 q 597 294 561 294 l 33 294 l 33 725 z"}}}
